<?xml version="1.0" encoding="UTF-8" standalone="no"?> <svg width="512" height="512" viewBox="0 0 512 512" fill="none" xmlns="http://www.w3.org/2000/svg">
<path fill-rule="evenodd" clip-rule="evenodd" d="M480 256C480 379.712 379.712 480 256 480C132.288 480 32 379.712 32 256C32 132.288 132.288 32 256 32C379.712 32 480 132.288 480 256Z" fill="#E92B2B"/>
<path fill-rule="evenodd" clip-rule="evenodd" d="M360 57.5551V454.445C328.922 470.766 293.539 480 256 480C218.461 480 183.078 470.766 152 454.445V57.5551C183.078 41.2342 218.461 32 256 32C293.539 32 328.922 41.2342 360 57.5551Z" fill="#FBFBFB"/>
<path fill-rule="evenodd" clip-rule="evenodd" d="M152 454.445C80.6592 416.98 32 342.172 32 256C32 169.827 80.6592 95.0196 152 57.5547V454.445Z" fill="#32AB45"/>
<path d="M217.864 217.201L229.088 226.948C222.295 252.232 240.202 277.45 266.311 279.369L274.906 280.001L261.176 257.255C260.533 256.189 261.301 254.828 262.546 254.828H287.997C287.997 232.778 268.543 215.794 246.694 218.77L244.283 219.099L233.148 208.734C232.672 208.291 231.975 208.18 231.385 208.453L218.24 214.541C217.187 215.029 216.987 216.44 217.864 217.201Z" fill="#FFBC0E"/>
<path fill-rule="evenodd" clip-rule="evenodd" d="M312 240C316.418 240 320 243.582 320 248C320 264.974 313.257 281.253 301.255 293.255C289.253 305.257 272.974 312 256 312C239.026 312 222.748 305.257 210.745 293.255C198.743 281.253 192 264.974 192 248C192 243.582 195.582 240 200 240C204.418 240 208 243.582 208 248C208 260.73 213.057 272.939 222.059 281.941C231.061 290.943 243.27 296 256 296C268.73 296 280.939 290.943 289.941 281.941C298.943 272.939 304 260.73 304 248C304 243.582 307.582 240 312 240Z" fill="#32AB45"/>
</svg>
