<?xml version="1.0" encoding="utf-8"?>
<!-- Generator: Adobe Illustrator 26.0.0, SVG Export Plug-In . SVG Version: 6.00 Build 0)  -->
<svg version="1.1" id="Layer_1" xmlns="http://www.w3.org/2000/svg" xmlns:xlink="http://www.w3.org/1999/xlink" x="0px" y="0px"
	 viewBox="0 0 133.5 133.5" style="enable-background:new 0 0 133.5 133.5;" xml:space="preserve">
<style type="text/css">
	.st0{fill:#FFFFFF;}
</style>
<g>
	<g>
		<path d="M66.8,3.2C31.7,3.2,3.2,31.6,3.2,66.8c0,35.1,28.5,63.6,63.6,63.6c35.1,0,63.6-28.5,63.6-63.6
			C130.4,31.6,101.9,3.2,66.8,3.2z"/>
		<path class="st0" d="M66.8,133.5C66.8,133.5,66.8,133.5,66.8,133.5C30,133.5,0,103.6,0,66.8c0-17.8,6.9-34.6,19.6-47.2
			C32.2,6.9,48.9,0,66.8,0h0c0,0,0,0,0,0c17.8,0,34.6,6.9,47.2,19.6c12.6,12.6,19.6,29.4,19.6,47.2c0,17.8-6.9,34.6-19.6,47.2
			C101.4,126.6,84.6,133.5,66.8,133.5z M66.8,6.4c-16.1,0-31.3,6.3-42.7,17.7C12.6,35.5,6.4,50.6,6.4,66.8
			c0,33.3,27.1,60.4,60.4,60.4c16.1,0,31.3-6.3,42.7-17.7c11.4-11.4,17.7-26.6,17.7-42.7c0-16.1-6.3-31.3-17.7-42.7
			C98.1,12.6,82.9,6.4,66.8,6.4L66.8,6.4z"/>
	</g>
	<g>
		<polygon class="st0" points="53.5,42.4 93.1,66.8 53.5,91.1 		"/>
	</g>
</g>
</svg>
